<svg id="Layer_1" height="512" viewBox="0 0 128 128" width="512" xmlns="http://www.w3.org/2000/svg" xmlns:xlink="http://www.w3.org/1999/xlink" data-name="Layer 1"><linearGradient id="linear-gradient" gradientUnits="userSpaceOnUse" x1="96.8" x2="7.158" y1="107.724" y2="18.083"><stop offset="0" stop-color="#5f69e2"/><stop offset="1" stop-color="#00b5bc"/></linearGradient><path d="m30.75 10.125a1.75 1.75 0 0 1 1.75-1.75h.583a1.75 1.75 0 1 1 0 3.5h-.583a1.75 1.75 0 0 1 -1.75-1.75zm55.174 87.5a1.75 1.75 0 0 0 -1.75 1.75v15h-64.833v-102.5h5.409a1.75 1.75 0 1 0 0-3.5h-7.159a1.75 1.75 0 0 0 -1.75 1.75v106a1.75 1.75 0 0 0 1.75 1.75h68.333a1.75 1.75 0 0 0 1.75-1.75v-16.75a1.75 1.75 0 0 0 -1.75-1.75zm-38.5-54.5h13.743a1.75 1.75 0 0 0 0-3.5h-13.743a1.75 1.75 0 0 0 0 3.5zm-20.75 21.252v-8.5a1.75 1.75 0 0 1 1.75-1.75h8.5a1.75 1.75 0 0 1 1.75 1.75v8.5a1.75 1.75 0 0 1 -1.75 1.75h-8.5a1.75 1.75 0 0 1 -1.75-1.75zm3.5-1.75h5v-5h-5zm17.25-.75h26a1.75 1.75 0 0 0 0-3.5h-26a1.75 1.75 0 0 0 0 3.5zm-20.75 21.252v-8.5a1.75 1.75 0 0 1 1.75-1.75h8.5a1.75 1.75 0 0 1 1.75 1.75v8.5a1.75 1.75 0 0 1 -1.75 1.75h-8.5a1.75 1.75 0 0 1 -1.75-1.75zm3.5-1.75h5v-5h-5zm17.25-.75h13.743a1.75 1.75 0 0 0 0-3.5h-13.743a1.75 1.75 0 0 0 0 3.5zm-20.75 21.252v-8.5a1.75 1.75 0 0 1 1.75-1.75h8.5a1.75 1.75 0 0 1 1.75 1.75v8.5a1.75 1.75 0 0 1 -1.75 1.75h-8.5a1.75 1.75 0 0 1 -1.75-1.75zm3.5-1.75h5v-5h-5zm81.1-59.7-23.744 48.81a1.734 1.734 0 0 1 -.523.634l-12.207 9.155a1.742 1.742 0 0 1 -1.05.351c-.052 0-.1-.013-.155-.018a1.718 1.718 0 0 1 -.175.018h-26a1.75 1.75 0 0 1 0-3.5h24.545l-.291-13.464a1.747 1.747 0 0 1 .177-.8l12.323-25.33v-30.687l-11.25-11.25v8.775h5.125a1.75 1.75 0 0 1 0 3.5h-6.875a1.75 1.75 0 0 1 -1.75-1.75v-13h-28.924a1.75 1.75 0 1 1 0-3.5h30.674a1.75 1.75 0 0 1 1.237.513l14.75 14.75a1.75 1.75 0 0 1 .513 1.237v24.214l4.154-8.539 3.772-7.75a8.719 8.719 0 1 1 15.68 7.629zm-2.906-5.519a5.22 5.22 0 0 0 -9.627-.579l-3 6.177 4.693 2.283a1.75 1.75 0 1 1 -1.534 3.145l-4.693-2.283-19.024 39.109.247 11.422 9.139-6.855 23.563-48.431a5.188 5.188 0 0 0 .24-3.99zm-76.931 11.95a1.75 1.75 0 0 0 1.237.513h.117a1.755 1.755 0 0 0 1.275-.686l4.619-6.065a1.75 1.75 0 1 0 -2.785-2.124l-3.4 4.471-1.616-1.616a1.75 1.75 0 1 0 -2.484 2.474z" fill="url(#linear-gradient)"/></svg>